<?xml version="1.0" standalone="no"?>
<!DOCTYPE svg PUBLIC "-//W3C//DTD SVG 20010904//EN"
 "http://www.w3.org/TR/2001/REC-SVG-20010904/DTD/svg10.dtd">
<svg version="1.0" xmlns="http://www.w3.org/2000/svg"
 width="225.000000pt" height="225.000000pt" viewBox="0 0 225.000000 225.000000"
 preserveAspectRatio="xMidYMid meet">

<g transform="translate(0.000000,225.000000) scale(0.100000,-0.100000)"
fill="#000000" stroke="none">
<path d="M422 2150 c-114 -23 -238 -127 -295 -247 l-32 -68 0 -720 0 -720 34
-72 c55 -118 165 -210 288 -243 30 -7 258 -11 732 -10 577 0 695 3 724 15 19
8 37 11 41 8 3 -4 6 -1 6 6 0 7 5 9 10 6 6 -3 10 -1 10 5 0 6 5 8 10 5 6 -3
10 -2 10 4 0 6 10 15 21 22 17 9 20 8 14 -3 -4 -7 17 14 48 47 67 71 113 158
128 240 14 74 3 1290 -12 1379 -23 134 -115 253 -244 317 l-70 34 -690 2
c-379 0 -709 -3 -733 -7z m226 -48 c-1 -5 -46 -61 -98 -124 l-95 -117 -128 0
c-79 -1 -127 3 -125 9 2 5 40 54 86 110 72 86 89 102 130 114 50 15 236 22
230 8z m522 3 c0 -3 -46 -59 -101 -125 l-101 -120 -130 0 -129 0 18 23 c10 12
56 69 102 125 l84 102 128 0 c71 0 129 -2 129 -5z m509 -12 c-7 -10 -54 -66
-103 -125 l-89 -108 -129 0 c-123 0 -129 1 -116 18 7 10 53 66 102 125 l89
107 130 0 c122 0 129 -1 116 -17z m329 -117 c23 -25 42 -49 42 -53 0 -5 -10
-21 -23 -36 l-22 -28 -128 3 -128 3 81 98 81 98 28 -20 c15 -11 46 -40 69 -65z
m-1502 -229 c28 -34 75 -90 103 -124 l53 -63 -134 1 -133 0 -103 125 -102 124
132 0 133 0 51 -63z m571 -63 l103 -124 -133 0 -132 0 -46 58 c-26 31 -72 87
-103 125 l-56 67 132 -1 133 -1 102 -124z m512 7 c56 -66 101 -122 101 -125 0
-3 -57 -6 -127 -6 l-128 0 -55 67 c-30 36 -76 93 -102 125 l-48 58 130 0 129
0 100 -119z m471 57 c48 -60 50 -65 50 -125 l0 -63 -79 0 -78 0 -89 107 c-49
59 -95 115 -102 125 -12 17 -6 18 117 18 l130 0 51 -62z m-1045 -536 c72 -41
182 -105 245 -142 63 -37 170 -99 238 -137 89 -51 119 -73 110 -80 -7 -6 -141
-83 -298 -173 -259 -148 -341 -195 -437 -252 l-33 -20 0 452 0 451 23 -12 c12
-7 81 -46 152 -87z"/>
</g>
</svg>
